<svg xmlns="http://www.w3.org/2000/svg" width="255" height="148"><title>bloc</title><desc>Created with Sketch.</desc><g fill="none"><g fill="black" fill-rule="nonzero"><g><path d="M82.74 99.14c1.37 0 2.42.68 3.15 2.03.73 1.36 1.1 3.08 1.1 5.17 0 2.6-.37 4.62-1.1 6.03-.74 1.4-1.9 2.38-3.47 2.9-6.3 2.2-13.24 3.44-20.8 3.76-2.1 8.66-6.08 15.66-11.9 20.98-5.84 5.34-12.27 8-19.3 8-10.62 0-18.35-4.02-23.18-12.06C2.42 127.9 0 116.26 0 101.02 0 87.55 1.68 72.9 5.04 57.1c3.37-15.83 8.28-29.3 14.74-40.42C26.24 5.56 33.94 0 42.88 0c4.82 0 8.7 2.06 11.65 6.2 2.94 4.1 4.4 9.46 4.4 16.04 0 8.56-1.62 17.07-4.87 25.53C50.8 56.22 45.4 65.1 37.82 74.4c7.04.5 12.77 3.4 17.18 8.68 4.42 5.28 7.04 11.78 7.88 19.5 4.94-.3 10.83-1.36 17.65-3.13.64-.2 1.37-.3 2.2-.3zM39.24 15.5c-2.1 0-4.38 3.1-6.85 9.32-2.48 6.22-4.77 14.65-6.87 25.3-2.1 10.65-3.68 22.3-4.73 34.92C27.74 72.4 33.28 61.26 37.43 51.6c4.15-9.65 6.23-18.24 6.23-25.76 0-3.34-.4-5.9-1.2-7.67-.77-1.78-1.85-2.67-3.22-2.67zm-8.2 115.9c3.26 0 6.15-1.36 8.68-4.07 2.52-2.72 4.2-6.63 5.04-11.75-3.26-2.2-5.75-5.06-7.5-8.6-1.72-3.56-2.6-7.32-2.6-11.3 0-1.45.22-3.43.64-5.94h-.47c-4.3 0-7.9 2.1-10.8 6.34-2.9 4.23-4.33 9.9-4.33 17 0 5.95 1.13 10.5 3.4 13.62 2.25 3.13 4.9 4.7 7.95 4.7zm102.13-19.1c1.37 0 2.45.62 3.23 1.87.8 1.25 1.2 2.98 1.2 5.17 0 4.18-1 7.4-3 9.7-4.53 5.54-9.44 10.1-14.74 13.64-5.3 3.55-11.32 5.32-18.05 5.32-9.24 0-16.1-4.18-20.56-12.53-4.46-8.35-6.7-19.16-6.7-32.42 0-12.74 1.66-27.25 4.97-43.54 3.32-16.27 8.2-30.27 14.67-41.96C100.63 5.84 108.33 0 117.27 0c5.03 0 9 2.32 11.88 6.97 2.9 4.65 4.34 11.3 4.34 19.97 0 12.42-3.48 26.83-10.4 43.22-6.95 16.4-16.35 32.63-28.22 48.7.73 4.3 1.94 7.34 3.62 9.17 1.68 1.83 3.9 2.74 6.62 2.74 4.3 0 8.1-1.22 11.35-3.68s7.4-6.66 12.45-12.62c1.26-1.46 2.68-2.2 4.25-2.2zM113.8 15.5c-2.43 0-5.16 4.34-8.2 13-3.05 8.67-5.73 19.42-8.04 32.27-2.32 12.84-3.58 25.16-3.8 36.96 7.47-12.22 13.4-24.46 17.82-36.73 4.42-12.27 6.62-23.46 6.62-33.6 0-7.93-1.47-11.9-4.4-11.9zm91.4 83.64c1.36 0 2.4.68 3.15 2.03.74 1.36 1.1 3.08 1.1 5.17 0 5-1.52 8-4.57 8.93-6.3 2.2-13.24 3.44-20.8 3.76-2 8.77-5.94 15.8-11.82 21.06-5.88 5.26-12.56 7.9-20.02 7.9-6.3 0-11.7-1.5-16.15-4.54-4.48-3.03-7.86-7.05-10.18-12.06-2.3-5-3.46-10.44-3.46-16.3 0-7.92 1.52-15 4.57-21.2 3.04-6.22 7.25-11.08 12.6-14.58 5.36-3.5 11.3-5.24 17.8-5.24 8 0 14.43 2.74 19.32 8.22 4.9 5.48 7.75 12.24 8.6 20.28 4.93-.3 10.8-1.36 17.64-3.13.83-.2 1.57-.3 2.2-.3zm-51.7 32.26c3.37 0 6.28-1.36 8.75-4.07 2.47-2.72 4.13-6.63 4.97-11.75-3.26-2.2-5.76-5.06-7.5-8.6-1.72-3.56-2.6-7.32-2.6-11.3 0-1.66.17-3.33.48-5h-.8c-4.2 0-7.68 2-10.47 6.03-2.78 4.03-4.17 9.7-4.17 17 0 5.74 1.13 10.13 3.4 13.16 2.24 3.03 4.9 4.54 7.94 4.54zm71.7 16.6c-9.97 0-17.77-2.9-23.4-8.7-5.6-5.8-8.42-13.43-8.42-22.94 0-8.45 1.68-15.87 5.04-22.24 3.36-6.36 7.72-11.27 13.08-14.72 5.36-3.44 10.98-5.17 16.87-5.17 5.77 0 10.27 1.7 13.47 5.1 3.2 3.4 4.8 7.75 4.8 13.07 0 4.4-.96 8.1-2.9 11.12-1.95 3.03-4.5 4.54-7.65 4.54-2 0-3.6-.47-4.82-1.4-1.2-.95-1.8-2.25-1.8-3.92 0-.73.1-1.57.3-2.5.2-.95.37-1.63.48-2.04.52-1.57.78-3.03.78-4.4 0-1.35-.34-2.4-1.02-3.12-.68-.73-1.65-1.1-2.92-1.1-2.4 0-4.67 1.07-6.77 3.2-2.1 2.15-3.78 5.05-5.05 8.7-1.26 3.66-1.9 7.68-1.9 12.06 0 5.96 1.25 10.47 3.72 13.55 2.47 3.07 5.96 4.6 10.48 4.6 3.57 0 6.85-1.03 9.85-3.12 3-2.1 5.96-5.17 8.9-9.24 1.26-1.57 2.68-2.35 4.26-2.35 1.35 0 2.43.62 3.22 1.87.8 1.25 1.18 2.98 1.18 5.17 0 3.76-.9 7-2.68 9.7-2.84 4.4-6.57 7.86-11.2 10.42-4.6 2.56-9.92 3.84-15.9 3.84z"/></g></g></g></svg>